<?xml version="1.0" encoding="UTF-8" standalone="no"?>
<!DOCTYPE svg PUBLIC "-//W3C//DTD SVG 1.1//EN" "http://www.w3.org/Graphics/SVG/1.1/DTD/svg11.dtd">
<svg width="100%" height="100%" viewBox="0 0 3933 3429" version="1.1" xmlns="http://www.w3.org/2000/svg" xmlns:xlink="http://www.w3.org/1999/xlink" xml:space="preserve" xmlns:serif="http://www.serif.com/" style="fill-rule:evenodd;clip-rule:evenodd;stroke-linejoin:round;stroke-miterlimit:2;">
    <rect id="Artboard1" x="0" y="0" width="3933" height="3429" style="fill:none;"/>
    <g id="Artboard11" serif:id="Artboard1">
        <g transform="matrix(0.319925,-4.89942e-16,-4.89942e-16,-0.319925,273.265,3500.86)">
            <path d="M1339,10462C1001,10389 741,10146 633,9800L604,9707L604,1906L627,1817C719,1471 971,1223 1320,1133C1399,1113 1446,1113 3312,1113C5128,1112 5224,1113 5241,1131C5280,1172 5912,1986 5912,1986L5733,2253L5418,2483L4659,3003L4671,3063L4781,3361L4902,3693L4934,3778L4672,4074L4410,4383L4578,4823L4421,5048L4265,5259L4173,5223L3888,5015L3782,4914L3474,4956L3087,5004L3008,5011L2914,4912L2638,4629L2456,4444L2181,4422L1857,4399L1807,4399L1662,4235L1394,3928L1221,3773L732,3656L609,3633L1106,3787L1240,3827L1352,3964L1572,4230L1680,4360L1680,9261L2108,9258L2536,9256L2536,8972L2265,8970L1995,8969L1995,6729L1994,4489L2029,4492L2210,4510L2385,4528L2698,4832L3011,5129L3396,5077L3753,5030L3785,5059L4079,5294L4314,5422L4650,5669L4807,5798L4459,5385L4366,5281L4489,5116L4653,4897L4694,4834L4615,4615L4550,4390L4636,4290L4757,4153L4932,3955L5061,3798L4840,3197L4795,3083L4935,2978L5213,2782L5647,2470L5697,2436L5781,2469L6053,2567L6949,2889L7044,2903L5868,2305L5829,2283L6063,2027L6384,1873C6560,1788 6761,1691 6830,1658C6900,1625 7046,1555 7156,1502C7265,1449 7419,1375 7497,1339C7575,1302 7707,1237 7791,1195L7943,1118L9235,1118L9337,1154C9583,1239 9764,1396 9876,1622C9944,1759 9974,1974 9974,1974L9981,5880L9979,9676L9952,9776C9904,9951 9815,10103 9690,10222C9579,10328 9450,10404 9301,10450L9224,10474C9224,10474 1403,10475 1339,10462ZM8985,8645L8988,8035L8839,7871L8685,7707L8678,8339L8678,8972L8405,8973L8132,8975L8129,9104C8129,9104 8129,9240 8132,9247C8136,9259 8218,9261 8560,9258L8983,9256L8985,8645ZM9965,8857L9763,8755L9467,8610L9373,8563L9301,8301L9221,8028L9100,7873L8988,7730L8988,2898L8127,2898L8127,3182L8678,3182L8678,5300L8663,7416L8140,7319L7712,6723L7613,6605L7434,6636L7051,6709L6830,6750L6783,6706L6528,6458L6308,6249L6474,6488L6558,6612L6357,6668L6111,6398L5840,6091L5804,6053L5828,6095L5891,6190L6068,6447L6291,6774L6376,6896L6290,7061L6203,7226L6327,7430L6450,7634L6337,7855L6229,8080L6292,7998L6445,7777L6538,7642L6444,7462L6355,7160L6500,6891L6462,6831L6430,6775L6657,6730L6719,6808L6878,6867L7224,6809L7541,6756L7625,6832L8061,7433L8489,7508L8720,7565L8936,7819L9148,8075L9245,8348L9339,8608L9957,8862L9965,8857ZM1992,3742L1995,3187L2541,3181L2541,2898L1680,2898L1680,4093L1770,4193L1914,4297L1979,4299L1992,3742Z" style="fill:rgb(114,96,141);fill-rule:nonzero;"/>
        </g>
        <g transform="matrix(1.95312,0,0,1.95312,-1874.32,-1634.13)">
            <g transform="matrix(0.444223,0,0,0.725154,1358.72,1070.88)">
                <path d="M759.441,510.618L650.667,510.618L650.667,349.549L759.441,349.549L759.441,320.865L650.667,320.865L650.667,291.741C650.667,255.996 662.193,240.993 711.177,240.993C760.161,240.993 817.07,253.349 817.07,253.349L828.595,224.665C828.595,224.665 765.924,209.662 706.855,210.544C629.056,210.985 600.962,238.345 600.962,289.093L600.962,320.865L533.248,320.865L533.248,349.549L600.962,349.549L600.962,510.618L533.248,510.618L533.969,539.302L760.161,539.302L759.441,510.618Z" style="fill:white;fill-rule:nonzero;"/>
            </g>
            <g transform="matrix(0.444223,0,0,0.725154,1678.82,1070.88)">
                <path d="M669.396,225.989C646.345,225.989 630.497,235.256 630.497,248.936C630.497,263.057 646.345,271.883 669.396,271.883C690.287,271.883 709.016,263.057 709.016,248.936C709.016,235.256 691.007,225.989 669.396,225.989ZM764.483,539.302L763.763,510.618L698.21,510.618L698.21,329.25L582.953,329.25L582.953,357.933L648.506,357.933L648.506,510.618L582.953,510.618L583.673,539.302L764.483,539.302Z" style="fill:white;fill-rule:nonzero;"/>
            </g>
            <g transform="matrix(0.444223,0,0,0.725154,1978.92,1065.88)">
                <path d="M791.497,481.052C791.497,442.66 742.512,431.187 680.562,414.418C628.696,400.297 610.687,392.354 610.687,376.467C610.687,359.699 637.34,349.99 675.519,350.432C719.461,350.873 767.725,364.111 771.327,365.435L790.056,338.517C787.895,337.634 733.148,319.983 674.799,319.983C605.644,319.983 558.821,342.93 558.821,376.909C558.821,398.09 575.389,419.713 660.392,442.66C709.376,455.457 739.631,459.429 739.631,481.935C739.631,502.234 712.978,513.707 670.477,513.707C620.772,513.707 569.627,495.614 566.025,493.849L545.855,520.768C549.456,522.533 609.246,542.832 671.197,543.714C749.716,544.597 791.497,515.472 791.497,481.052Z" style="fill:white;fill-rule:nonzero;"/>
            </g>
            <g transform="matrix(0.162044,0,0,0.725154,1536.32,1354.22)">
                <path d="M1002.87,481.052C1002.87,442.66 868.581,431.187 698.751,414.418C556.567,400.297 507.198,392.354 507.198,376.467C507.198,359.699 580.264,349.99 684.927,350.432C805.388,350.873 937.698,364.111 947.572,365.435L998.916,338.517C992.992,337.634 842.909,319.983 682.952,319.983C493.375,319.983 365.014,342.93 365.014,376.909C365.014,398.09 410.434,419.713 643.457,442.66C777.741,455.457 860.682,459.429 860.682,481.935C860.682,502.234 787.615,513.707 671.104,513.707C534.845,513.707 394.636,495.614 384.762,493.849L329.469,520.768C339.342,522.533 503.248,542.832 673.079,543.714C888.329,544.597 1002.87,515.472 1002.87,481.052Z" style="fill:white;fill-rule:nonzero;"/>
            </g>
            <g transform="matrix(0.193863,0,0,0.725154,1841.42,1354.22)">
                <path d="M1008.5,539.302L1005.2,329.25L886.352,329.25L886.352,482.817C831.881,496.938 734.492,513.707 615.645,513.707C478.641,513.707 447.278,491.643 447.278,454.134L447.278,329.25L328.431,329.25L328.431,454.134C328.431,512.383 386.204,543.714 595.837,543.714C754.3,543.714 823.627,525.18 892.955,511.501L904.509,539.302L1008.5,539.302Z" style="fill:white;fill-rule:nonzero;"/>
            </g>
            <g transform="matrix(0.151044,0,0,0.725154,2167.45,1356.22)">
                <path d="M1012.27,323.513C766.512,323.513 666.939,351.755 630.923,373.378L624.567,373.378L613.974,329.25L334.321,329.25L334.321,358.816L501.689,358.816L501.689,510.618L334.321,510.618L336.44,539.302L853.374,539.302L851.255,510.618L647.871,510.618L647.871,440.012C647.871,389.265 758.038,359.699 1012.27,359.699L1012.27,323.513Z" style="fill:white;fill-rule:nonzero;"/>
            </g>
            <g transform="matrix(0.203369,0,0,0.725154,1508.62,1637.57)">
                <path d="M991.109,397.649C991.109,338.076 851.068,319.983 700.013,319.983C465.562,319.983 330.242,361.022 331.815,439.13C331.815,522.974 495.459,543.714 676.41,543.714C887.259,543.714 998.977,515.472 998.977,515.472L951.772,492.967C951.772,492.967 849.495,515.472 685.851,515.472C541.09,515.472 468.709,497.38 445.107,466.048C440.386,458.105 437.239,448.838 437.239,440.012L975.374,440.012C975.374,438.689 991.109,411.329 991.109,397.649ZM696.866,348.666C784.982,348.666 880.965,357.492 880.965,395.443C880.965,402.062 877.818,410.888 877.818,411.329L448.254,411.329C468.709,366.759 563.119,348.666 696.866,348.666Z" style="fill:white;fill-rule:nonzero;"/>
            </g>
            <g transform="matrix(0.444223,0,0,0.725154,1673.65,1591.57)">
                <rect x="507.676" y="579.017" width="322" height="28.242" style="fill:white;fill-rule:nonzero;"/>
            </g>
            <g transform="matrix(0.444223,0,0,0.725154,1954.87,1591.57)">
                <rect x="507.676" y="579.017" width="322" height="28.242" style="fill:white;fill-rule:nonzero;"/>
            </g>
        </g>
        <g transform="matrix(1.95312,0,0,1.95312,-1874.32,-1634.13)">
            <g transform="matrix(1,0,0,0.918582,78.6214,15.7474)">
                <path d="M1433.36,1194.27L1433.36,1244.27L1343.36,1243.91L1343.36,2276.7L1433.36,2276.7L1433.36,2326.7L1293.36,2326.34L1293.36,1193.91L1433.36,1194.27Z" style="fill:rgb(235,235,235);"/>
            </g>
            <g transform="matrix(-1,1.12494e-16,-1.22465e-16,-0.918582,3860.77,3249.72)">
                <path d="M1433.36,1194.27L1433.36,1244.27L1343.36,1243.91L1343.36,2276.7L1433.36,2276.7L1433.36,2326.7L1293.36,2326.34L1293.36,1193.91L1433.36,1194.27Z" style="fill:rgb(235,235,235);"/>
            </g>
        </g>
        <g transform="matrix(1.58143,1.1462,-1.1462,1.58143,1741.33,1860.25)">
            <path d="M623.382,256L780.914,331.165L831.164,256L623.382,256Z" style="fill:rgb(114,96,141);"/>
        </g>
        <g transform="matrix(-1.95305,-0.0167872,0.0167872,-1.95305,3923.23,3685.69)">
            <path d="M796.067,337.495L903.391,387.638L1008.33,256L849.32,256M849.32,256L796.067,337.495" style="fill:rgb(114,96,141);"/>
        </g>
    </g>
</svg>
